ply                 
format ascii 1.0    
element vertex 78
property float qx    
property float qy    
property float qz    
property float qw    
property float tx    
property float ty    
property float tz    
end_header          
-0.000963211416758 0.044281931595482 0.036338496964123 0.998357499293879 -0.242631786434300 -0.175519927591109 -0.830835634641408
-0.001535246838558 0.032025548716031 0.031544137759672 0.998987975212705 -0.223817498146518 -0.173854737302564 -0.836442601469010
-0.001386618123254 0.019544967333001 0.026456974940026 0.999457903075039 -0.204624627053609 -0.171039059688816 -0.841914993242081
-0.003052656650303 0.008136842127946 0.021602265084731 0.999728870859879 -0.186942976144000 -0.171614953416884 -0.845894946570642
-0.004331700489739 -0.003148764996470 0.015750368463479 0.999861614196249 -0.169738226333767 -0.171377574340653 -0.849555917994333
-0.005528687428208 -0.014069714816975 0.009363561900425 0.999841887724668 -0.153253113932945 -0.171039245879896 -0.852746163343707
-0.006665665879359 -0.024630525928376 0.002501975867986 0.999671269071805 -0.137470356039167 -0.170665506278085 -0.855500641077689
-0.006219872286183 -0.034995449741555 -0.004435651426307 0.999358272434143 -0.121952956501357 -0.167789113021226 -0.858411610475357
-0.006967736714544 -0.046180350132954 -0.009489172494841 0.998863745218555 -0.104351629485251 -0.167725446208777 -0.860734599960053
-0.008420282261141 -0.057354991936004 -0.014256781216326 0.998216533591792 -0.086647090926367 -0.169126138176643 -0.862417022078055
-0.008864586785473 -0.068720835709031 -0.019759373642334 0.997400838677128 -0.068758460249627 -0.168791560724203 -0.864086002564942
-0.009490255470606 -0.079815486044722 -0.025486817350530 0.996438580836716 -0.051370737322882 -0.168900605406491 -0.865266215950725
-0.010700337157831 -0.090448897728925 -0.032058354176657 0.995327464511964 -0.035059874546319 -0.169996522427535 -0.865859701304871
-0.011151965432478 -0.100850539261219 -0.038776936266161 0.994083070780065 -0.019107663469988 -0.169960430306681 -0.866360000010407
-0.012361339218103 -0.110676308859018 -0.046125330807680 0.992708620798651 -0.004410540847375 -0.171269585359409 -0.866295476645844
-0.013436274901464 -0.120724972065689 -0.052932908442589 0.991182654630477 0.010862519596553 -0.172689662284852 -0.865950547693790
-0.014224399968311 -0.130850383488061 -0.058738522904190 0.989558300209544 0.026617589991906 -0.174009224943051 -0.865340239399949
-0.014653874117154 -0.140642684059431 -0.064992940821138 0.987816185855110 0.041707615736355 -0.174787536586638 -0.864582232127211
-0.015781247030709 -0.150874494309434 -0.069532022524028 0.985978263985949 0.057969830174733 -0.177260859159487 -0.863134356984918
-0.014443058233155 -0.160462651500864 -0.074300627983309 0.984135433882691 0.073462030934534 -0.175528008407706 -0.862304634860379
-0.012192131081605 -0.169716337860778 -0.078736361603847 0.982266919917495 0.088670880260848 -0.172360653268053 -0.861509259538121
-0.009645498968434 -0.179663553360655 -0.081431107323779 0.980304517333005 0.105691282147998 -0.169089035700223 -0.860232552461044
-0.006879928523257 -0.189562174259697 -0.083537468847673 0.978284386041183 0.122859015264950 -0.165568018963551 -0.858631616261517
-0.003624859883399 -0.198402862487481 -0.085629348739808 0.976366109193675 0.138304062465490 -0.161109905547686 -0.857125824410115
-0.001278691632455 -0.205739190261617 -0.087128168233727 0.974719668847633 0.151119796851735 -0.158081441178009 -0.855520273807813
0.000088899745094 -0.211729258533216 -0.088319156214739 0.973329563828884 0.161473637919093 -0.156586770056409 -0.853898415453447
0.000603557695539 -0.216067904655126 -0.089946395877588 0.972226281358761 0.168654245557815 -0.156314129278597 -0.852555422213451
-0.000793356458130 -0.219419302131457 -0.091856481665669 0.971296518687100 0.173613287135240 -0.159202668538888 -0.851019936604987
-0.001981142843825 -0.222552234451875 -0.092156085690662 0.970553364778921 0.178672523230345 -0.161758099181539 -0.849485268719691
-0.003688083162541 -0.224311733864126 -0.093531291542581 0.970011619309703 0.180929146621603 -0.164959557615479 -0.848387054668151
-0.004543722921789 -0.225848219839659 -0.094266897414388 0.969580160806280 0.183168529746414 -0.166673843322557 -0.847566416012701
-0.003032599230597 -0.226312708067441 -0.095587936705984 0.969348393440346 0.183946007798563 -0.164108633688210 -0.847894003271446
-0.000856703033799 -0.226550948371945 -0.096230683945547 0.969233506085637 0.184682440666793 -0.160372006332934 -0.848443792494769
0.001135127472885 -0.225878473806639 -0.097824687716466 0.969230600543328 0.183548426475671 -0.156771118894526 -0.849357257978874
0.002712113110212 -0.224518308196156 -0.099729492258012 0.969349370506410 0.181052905945895 -0.153751663609707 -0.850439634974149
0.003470248778997 -0.222058594158798 -0.103314126177604 0.969538101090302 0.176023336109211 -0.151882055465597 -0.851825148145377
0.003797080498646 -0.219361095358636 -0.106838366444073 0.969768970156453 0.170503883703014 -0.150679048506591 -0.853155630725884
0.003747843090845 -0.216410450151394 -0.110614783930124 0.970008680535143 0.164393313781081 -0.150025224287473 -0.854463294953626
0.002802564808232 -0.213990634071478 -0.112749869236718 0.970302850221149 0.159399791768709 -0.151068913645562 -0.855219895281935
0.002131963972285 -0.213854392886000 -0.109993581393775 0.970650897812984 0.159704343339377 -0.152344841489628 -0.854930667847331
0.001812975822032 -0.214066002946772 -0.106315194339417 0.971014695539482 0.160952193681843 -0.153124671306525 -0.854550904332737
0.001346465996357 -0.214766561371475 -0.100896287213023 0.971438855704578 0.163487567140149 -0.154319832172519 -0.853847648237259
-0.000083184333979 -0.214794929699618 -0.096039568965626 0.971925682574856 0.164506445865590 -0.157013980452106 -0.853154386868738
-0.001803524384298 -0.214667011213185 -0.091473911647535 0.972392587941975 0.165142369135721 -0.160161501296257 -0.852439669998167
-0.002526514596319 -0.214742008916279 -0.087273907175299 0.972760377203427 0.166277579234736 -0.161594329786799 -0.851941785959716
-0.003238012892771 -0.214240369504829 -0.084494770605886 0.973114182964774 0.166032555426549 -0.162857529051864 -0.851741706034649
-0.004326325977369 -0.214495079417463 -0.082070728610532 0.973261290360698 0.166928955610448 -0.164870051354659 -0.851172342506678
-0.005454745045462 -0.216328567519412 -0.080813350630994 0.972954983024025 0.170226180549105 -0.167131808025805 -0.850070369792706
-0.007991112689977 -0.219448443248790 -0.081015951233366 0.972221650920926 0.175033004260496 -0.171956325633923 -0.848122426141958
-0.010837815038529 -0.223130055577947 -0.084242508733265 0.971081211735300 0.179834255662931 -0.177325300756586 -0.846002680707411
-0.015350552737188 -0.228591927554608 -0.088083862900561 0.969407718291972 0.187097323543855 -0.185854674750184 -0.842583809510862
-0.020643380213979 -0.235306529786190 -0.094344764939805 0.967111034587950 0.195478906704050 -0.195952682864292 -0.838376017755142
-0.025057549899004 -0.243270957841760 -0.100230334958890 0.964440376704460 0.206180128805771 -0.204864200428988 -0.833663361104995
-0.027162383774782 -0.253393419574220 -0.104399354868097 0.961329680456856 0.221577761786215 -0.210334008261920 -0.828328736421788
-0.026813656275005 -0.263453465771249 -0.109230125511052 0.958092938545694 0.237233088291309 -0.211759248495409 -0.823612356095709
-0.024428458161673 -0.272895267452064 -0.115707721035043 0.954747687468782 0.251860188628674 -0.209825921523953 -0.819752135140808
-0.021351448044963 -0.280775190175401 -0.122267501238940 0.951714277705834 0.264044850868806 -0.206583895856445 -0.816734275989659
-0.017268245576019 -0.286543902797603 -0.129728750051683 0.949086324247838 0.272770845875570 -0.201371589445371 -0.815167236138933
-0.012615124622458 -0.291251192715455 -0.136526378356539 0.946770378384026 0.280188655693714 -0.195018153596238 -0.814197527109987
-0.007185520710435 -0.295086743883904 -0.141699061190002 0.944877535945261 0.286960914276164 -0.187095823962023 -0.813701287236987
-0.003277606373465 -0.298020807985449 -0.145321649782652 0.943426983612727 0.292204977052759 -0.181474174887607 -0.813113765110034
-0.000407594954867 -0.300162150078620 -0.148831140115495 0.942205821070139 0.295834706975450 -0.177440456588238 -0.812698329233072
0.000526633696080 -0.301336057609602 -0.152496494203988 0.941244454058958 0.297157051049627 -0.176486154296595 -0.812431825365462
0.000885802391246 -0.302310782751868 -0.155302877892597 0.940472446222830 0.298177400265462 -0.176396475316824 -0.812085223636339
0.001766182393267 -0.303373900730862 -0.156748869217792 0.939888796057298 0.299892412102971 -0.175333290027524 -0.811692051867460
0.002107369427200 -0.303963322090022 -0.158650933048404 0.939378379174742 0.300508937090083 -0.175098393762723 -0.811522429513238
0.001625242605865 -0.305764226575846 -0.157597985846562 0.938972028971073 0.303607817682729 -0.176360561443071 -0.810101189813344
0.001139224417158 -0.307130715485588 -0.156790709345791 0.938661866294717 0.305919582414680 -0.177520391482078 -0.808984225526250
0.002459043269175 -0.309332897257581 -0.153268606916010 0.938517898558390 0.310980665413276 -0.175563846104950 -0.807486471870882
0.004056734247918 -0.311876873343225 -0.148170700365502 0.938489106135011 0.317104442360797 -0.173021929439346 -0.805657249694064
0.006878392773225 -0.314003833601329 -0.143868062686114 0.938432874922586 0.322727162953392 -0.168302491466391 -0.804428294149650
0.009050728219277 -0.315883621931849 -0.139319125073098 0.938469926584109 0.327749900464345 -0.164553910463147 -0.803177165044281
0.010838543109111 -0.317670433240593 -0.135535638084795 0.938401892920594 0.332271321309922 -0.161490079474108 -0.801944307666970
0.011740674705094 -0.318226759756656 -0.134591886616341 0.938338377126984 0.333732219690954 -0.159973631662226 -0.801644924285229
0.011984311314294 -0.317821545941009 -0.136257195408255 0.938232283561734 0.332726291678642 -0.159675126581365 -0.802124986296299
0.012278953259867 -0.316716972162746 -0.139476686794296 0.938128904091431 0.330190537302162 -0.159297224371150 -0.803249252245098
0.012624735331739 -0.316011257092383 -0.141294419620359 0.938090287996225 0.328687026682797 -0.158751924502826 -0.803974537511654
0.012979105625132 -0.316078178185834 -0.140511494856169 0.938180498574331 0.329117245932438 -0.158078681220743 -0.803932140294222
