ply                 
format ascii 1.0    
element vertex 3
property float qx    
property float qy    
property float qz    
property float qw    
property float tx    
property float ty    
property float tz    
end_header          
0.010633903386288 0.005338683743349 -0.011815669695942 0.999859394367176 -0.040163799273942 0.012377389960632 0.027751046008057
-0.011469774938688 0.025492287763778 -0.000475506701796 0.999609104310681 -0.380161909127605 0.002631718091579 -0.059324173526842
0.016284621500559 -0.008667752045242 -0.018699166207885 0.999654951650916 -0.188403644841938 0.274716129943326 -0.056639162619690
