ply                 
format ascii 1.0    
element vertex 7
property float qx    
property float qy    
property float qz    
property float qw    
property float tx    
property float ty    
property float tz    
end_header          
0.000000000000000 -0.000000000000000 0.000000000000000 1.000000000000000 -0.000000000000000 -0.000000000000000 -0.000000000000000
-0.016593880693904 -0.000186681650989 0.028000927946113 0.999470137776829 -0.037327628628479 0.000082510173804 -0.001907311231888
0.000457331453393 0.014423698380777 0.009509216069053 0.999850650138667 -0.085536893618025 0.002144140578334 0.004343512606362
0.003526354707856 0.032106516278534 0.007236731852254 0.999452032939565 -0.128175685998395 0.004297906484450 0.016040874846510
0.014470658869190 0.053320045772562 0.001457126863235 0.998471556696538 -0.170225745318201 0.004966370008607 0.022488944573925
0.006527914614298 0.074616116994577 -0.009251133316835 0.997148052170687 -0.212348614636470 0.017477855539915 0.050446177722197
0.007706858657714 0.092336128049545 -0.012965628960427 0.995613648084491 -0.240124548838058 0.023148926647265 0.074628685930889
