ply                 
format ascii 1.0    
element vertex 7
property float qx    
property float qy    
property float qz    
property float qw    
property float tx    
property float ty    
property float tz    
end_header          
0.000887050141313 -0.000785296744619 -0.001248764965066 0.999998518517468 -0.003747863437033 -0.000122223973583 -0.014729396302465
-0.015653348179984 -0.000771919161508 0.026726769495490 0.999519913070219 -0.040453287311978 -0.000614155756008 -0.016304612024991
0.001326566158584 0.013982880911788 0.008208358375101 0.999867662301577 -0.088392478379333 0.001938619388073 -0.010144153408322
0.004390664464091 0.031801884381288 0.005901627601579 0.999467124525372 -0.130915239362031 0.004231389458544 0.001384717484081
0.015279540239427 0.053164084613014 0.000047729044878 0.998468884582424 -0.172971088159969 0.005209243417417 0.007884047565055
0.007384509501664 0.074606114327402 -0.010711244480966 0.997128209392381 -0.215233956135446 0.017464645516878 0.035604140323221
0.008527437374270 0.092419687740541 -0.014523195757023 0.995577702098019 -0.243154508735967 0.023133184980532 0.059390007841566
