ply                 
format ascii 1.0    
element vertex 7
property float qx    
property float qy    
property float qz    
property float qw    
property float tx    
property float ty    
property float tz    
end_header          
0.0153375 0.101856 0.0033489 0.994675 -0.419696 0.0286071 -0.686499
0.0111613 0.0637253 -0.00399211 0.997897 -0.214081 0.017093 -0.724196
0.0113102 0.0838255 0.00481869 0.996405 -0.346283 0.0171767 -0.707933
0.0201359 0.161926 -0.0181209 0.986431 -0.628022 0.0649012 -0.580143
0.0188352 0.144284 -0.0143252 0.989253 -0.572597 0.0549344 -0.620166
-0.00618171 0.0656744 0.0225811 0.997566 -0.259216 -0.0179521 -0.723653
0.0252956 0.123434 -0.00268741 0.992027 -0.497869 0.0447778 -0.665126
